# xmcd
#
# Track frame offsets: 
#        150
#        17954
#        41494
#        67996
#        92172
#        120151
#        135307
#        158809
#        186750
#        216210
#        240709
#        262684
#
# Disc length: 3947 seconds
#
# Revision: 1
# Processed by: cddbd v1.5.2PL0 Copyright (c) Steve Scherf et al.
# Submitted via: ExactAudioCopyFreeDBPlugin 1.0
#
DISCID=950f690c
DTITLE=Robert Glasper Experiment - Black Radio
DYEAR=2012
DGENRE=Hip-Hop
TTITLE0=Lift Off-Mic Check (feat. Shafiq Husayn)
TTITLE1=Afro Blue (feat. Erykah Badu)
TTITLE2=Cherish the Day (feat. Lalah Hathaway)
TTITLE3=Always Shine (feat. Lupe Fiasco and Bilal)
TTITLE4=Gonna be Albright(F.T.B.) (feat. Ledisi)
TTITLE5=Move Love (feat. King)
TTITLE6=Ah Yeah (feat. Musiq Soulchild and Chrisette Michele)
TTITLE7=The Consequences of Jealousy (feat. Meshell Ndegedcello)
TTITLE8=Why Do We Try (feat. Stokley)
TTITLE9=Black Radio (feat. Yasiin Bey)
TTITLE10=Letter to Hermione (feat. Bilal)
TTITLE11=Smells Like Teen Spirit
EXTD=
EXTT0=
EXTT1=
EXTT2=
EXTT3=
EXTT4=
EXTT5=
EXTT6=
EXTT7=
EXTT8=
EXTT9=
EXTT10=
EXTT11=
PLAYORDER=
